<?xml version="1.0" standalone="no"?>
<!DOCTYPE svg PUBLIC "-//W3C//DTD SVG 20010904//EN"
 "http://www.w3.org/TR/2001/REC-SVG-20010904/DTD/svg10.dtd">
<svg version="1.0" xmlns="http://www.w3.org/2000/svg"
 width="700.000000pt" height="700.000000pt" viewBox="0 0 700.000000 700.000000"
 preserveAspectRatio="xMidYMid meet">
<metadata>
Created by potrace 1.14, written by Peter Selinger 2001-2017
</metadata>
<g transform="translate(0.000000,700.000000) scale(0.100000,-0.100000)"
fill="#000000" stroke="none">
<path d="M1946 6563 c-1 -1 -20 -5 -41 -7 -100 -13 -246 -69 -329 -125 -98
-66 -197 -199 -237 -316 l-24 -70 0 -2550 0 -2550 29 -75 c90 -235 313 -401
575 -427 80 -8 3083 -8 3161 0 172 17 349 105 455 225 48 54 104 151 128 222
l22 65 2 2522 c2 2801 7 2579 -68 2730 -40 80 -123 175 -195 224 -92 63 -228
113 -337 125 -54 6 -3135 13 -3141 7z m3194 -365 c73 -37 118 -80 148 -146
l25 -55 0 -2497 -1 -2498 -25 -53 c-14 -30 -32 -61 -39 -69 -30 -36 -91 -73
-148 -91 -59 -18 -116 -19 -1603 -19 -1655 0 -1589 -2 -1671 49 -49 31 -93 82
-116 134 l-22 49 0 2498 1 2499 21 48 c23 52 67 103 116 133 81 51 26 49 1699
47 l1560 -2 55 -27z"/>
<path d="M2414 5651 c-136 -62 -133 -232 5 -294 44 -19 67 -20 1080 -20 944 0
1040 2 1076 17 91 39 133 123 100 202 -21 51 -42 73 -90 95 -38 18 -92 19
-1085 19 -999 0 -1047 -1 -1086 -19z"/>
<path d="M2189 4370 c-3 -30 0 -2172 3 -2175 2 -3 60 -6 129 -7 l124 -2 2 940
c1 516 2 945 2 953 1 9 8 6 22 -10 11 -13 46 -53 78 -89 32 -36 169 -191 306
-345 136 -154 276 -311 310 -350 93 -105 328 -370 331 -373 2 -4 78 77 179
193 44 50 82 92 85 95 3 3 54 61 115 130 60 69 112 127 115 130 3 3 55 61 115
130 60 69 112 127 115 130 3 3 37 41 75 84 39 44 77 87 85 96 8 9 44 49 80 90
66 74 90 100 93 100 1 0 2 -427 1 -950 l-1 -950 129 0 c115 0 128 2 129 18 0
22 0 2120 -1 2147 0 19 -7 20 -176 20 l-176 0 -36 -41 c-41 -44 -63 -69 -172
-194 -41 -47 -79 -90 -85 -96 -19 -20 -142 -159 -221 -249 -43 -49 -83 -95
-89 -101 -10 -11 -109 -122 -142 -160 -127 -145 -208 -234 -213 -234 -4 0 -31
28 -61 63 -29 34 -56 64 -59 67 -3 3 -39 43 -80 90 -41 47 -79 90 -85 96 -5 6
-39 44 -75 84 -36 41 -139 157 -230 260 -91 102 -194 219 -230 260 -36 41 -81
93 -102 115 l-36 40 -176 0 c-97 0 -176 -2 -177 -5z"/>
</g>
</svg>
