<svg width="99" height="39" viewBox="0 0 99 39" fill="none" xmlns="http://www.w3.org/2000/svg">
<path d="M22.125 0H4.125C3.0325 0.0046 1.9862 0.413499 1.2136 1.1377C0.4411 1.862 0.0049 2.8429 0 3.8671V34.8047C0.0049 35.8289 0.4411 36.8098 1.2136 37.5341C1.9862 38.2583 3.0325 38.6672 4.125 38.6718H22.125C23.2175 38.6672 24.2638 38.2583 25.0364 37.5341C25.8089 36.8098 26.2451 35.8289 26.25 34.8047V3.8671C26.2451 2.8429 25.8089 1.862 25.0364 1.1377C24.2638 0.413499 23.2175 0.0046 22.125 0ZM24 34.8047C24 35.2709 23.8025 35.718 23.4508 36.0476C23.0992 36.3773 22.6223 36.5625 22.125 36.5625H4.125C3.6277 36.5625 3.1508 36.3773 2.7992 36.0476C2.4475 35.718 2.25 35.2709 2.25 34.8047V3.8671C2.25 3.4009 2.4475 2.9538 2.7992 2.6242C3.1508 2.2945 3.6277 2.1093 4.125 2.1093H22.125C22.6223 2.1093 23.0992 2.2945 23.4508 2.6242C23.8025 2.9538 24 3.4009 24 3.8671V34.8047ZM20.25 6.6797C20.25 6.9594 20.1315 7.2276 19.9205 7.4254C19.7095 7.6232 19.4234 7.7343 19.125 7.7343H7.125C6.8266 7.7343 6.5405 7.6232 6.3295 7.4254C6.1185 7.2276 6 6.9594 6 6.6797C6 6.3999 6.1185 6.1317 6.3295 5.9339C6.5405 5.7361 6.8266 5.625 7.125 5.625H19.125C19.4234 5.625 19.7095 5.7361 19.9205 5.9339C20.1315 6.1317 20.25 6.3999 20.25 6.6797Z" fill="#EA6865"/>
<path d="M39.25 27.9759V10.6959H41.914L49.09 19.2399L56.266 10.6959H58.93V27.9759H56.986V12.9039L49.09 22.2879L41.194 12.9039V27.9759H39.25ZM64.3476 27.9759C63.8196 27.9759 63.3316 27.8479 62.8836 27.5919C62.4516 27.3359 62.1076 26.9919 61.8516 26.5599C61.5956 26.1119 61.4676 25.6239 61.4676 25.0959V10.6959H63.4116V25.0959C63.4116 25.3519 63.4996 25.5759 63.6756 25.7679C63.8676 25.9439 64.0916 26.0319 64.3476 26.0319H75.8676C76.1236 26.0319 76.3396 25.9439 76.5156 25.7679C76.7076 25.5759 76.8036 25.3519 76.8036 25.0959V10.6959H78.7476V25.0959C78.7476 25.6239 78.6196 26.1119 78.3636 26.5599C78.1076 26.9919 77.7556 27.3359 77.3076 27.5919C76.8756 27.8479 76.3956 27.9759 75.8676 27.9759H64.3476ZM81.1506 27.9759V27.9519L88.399 19.3359L81.1506 10.7199V10.6959H83.6466L89.671 17.8239L95.671 10.6959H98.167V10.7199L90.919 19.3359L98.191 27.9519V27.9759H95.671L89.671 20.8479L83.6466 27.9759H81.1506Z" fill="#EA6865"/>
</svg>
