<svg width="133" height="72" viewBox="0 0 133 72" fill="none" xmlns="http://www.w3.org/2000/svg">
<path d="M38.125 16.6641H20.125C19.0325 16.6687 17.9862 17.0776 17.2136 17.8018C16.4411 18.5261 16.0049 19.507 16 20.5312V51.4688C16.0049 52.493 16.4411 53.4739 17.2136 54.1982C17.9862 54.9224 19.0325 55.3313 20.125 55.3359H38.125C39.2175 55.3313 40.2638 54.9224 41.0364 54.1982C41.8089 53.4739 42.2451 52.493 42.25 51.4688V20.5312C42.2451 19.507 41.8089 18.5261 41.0364 17.8018C40.2638 17.0776 39.2175 16.6687 38.125 16.6641ZM40 51.4688C40 51.935 39.8025 52.3821 39.4508 52.7117C39.0992 53.0414 38.6223 53.2266 38.125 53.2266H20.125C19.6277 53.2266 19.1508 53.0414 18.7992 52.7117C18.4475 52.3821 18.25 51.935 18.25 51.4688V20.5312C18.25 20.065 18.4475 19.6179 18.7992 19.2883C19.1508 18.9586 19.6277 18.7734 20.125 18.7734H38.125C38.6223 18.7734 39.0992 18.9586 39.4508 19.2883C39.8025 19.6179 40 20.065 40 20.5312V51.4688ZM36.25 23.3438C36.25 23.6235 36.1315 23.8917 35.9205 24.0895C35.7095 24.2873 35.4234 24.3984 35.125 24.3984H23.125C22.8266 24.3984 22.5405 24.2873 22.3295 24.0895C22.1185 23.8917 22 23.6235 22 23.3438C22 23.064 22.1185 22.7958 22.3295 22.598C22.5405 22.4002 22.8266 22.2891 23.125 22.2891H35.125C35.4234 22.2891 35.7095 22.4002 35.9205 22.598C36.1315 22.7958 36.25 23.064 36.25 23.3438V23.3438Z" fill="#ED4140"/>
<path d="M55.594 45V27.72H58.258L65.434 36.264L72.61 27.72H75.274V45H73.33V29.928L65.434 39.312L57.538 29.928V45H55.594ZM80.6916 45C80.1636 45 79.6756 44.872 79.2276 44.616C78.7956 44.36 78.4516 44.016 78.1956 43.584C77.9396 43.136 77.8116 42.648 77.8116 42.12V27.72H79.7556V42.12C79.7556 42.376 79.8436 42.6 80.0196 42.792C80.2116 42.968 80.4356 43.056 80.6916 43.056H92.2116C92.4676 43.056 92.6836 42.968 92.8596 42.792C93.0516 42.6 93.1476 42.376 93.1476 42.12V27.72H95.0916V42.12C95.0916 42.648 94.9636 43.136 94.7076 43.584C94.4516 44.016 94.0996 44.36 93.6516 44.616C93.2196 44.872 92.7396 45 92.2116 45H80.6916ZM97.4946 45V44.976L104.743 36.36L97.4946 27.744V27.72H99.9906L106.015 34.848L112.015 27.72H114.511V27.744L107.263 36.36L114.535 44.976V45H112.015L106.015 37.872L99.9906 45H97.4946Z" fill="#ED4140"/>
</svg>
