<svg width="256" height="256" viewBox="0 0 256 256" fill="none" xmlns="http://www.w3.org/2000/svg">
<path d="M182.857 16H73.1429C66.4838 16.0266 60.1064 18.3951 55.3972 22.5899C50.6886 26.7853 48.0299 32.467 48 38.3995V217.6C48.0299 223.533 50.6886 229.215 55.3972 233.41C60.1064 237.605 66.4838 239.973 73.1429 240H182.857C189.516 239.973 195.894 237.605 200.603 233.41C205.311 229.215 207.97 223.533 208 217.6V38.3995C207.97 32.467 205.311 26.7853 200.603 22.5899C195.894 18.3951 189.516 16.0266 182.857 16ZM194.286 217.6C194.286 220.301 193.082 222.891 190.938 224.8C188.795 226.709 185.888 227.782 182.857 227.782H73.1429C70.1117 227.782 67.2049 226.709 65.0618 224.8C62.9181 222.891 61.7143 220.301 61.7143 217.6V38.3995C61.7143 35.6991 62.9181 33.1094 65.0618 31.2002C67.2049 29.2905 70.1117 28.2178 73.1429 28.2178H182.857C185.888 28.2178 188.795 29.2905 190.938 31.2002C193.082 33.1094 194.286 35.6991 194.286 38.3995V217.6ZM171.429 54.6911C171.429 56.3112 170.706 57.8647 169.42 59.0104C168.134 60.1561 166.39 60.7996 164.571 60.7996H91.4286C89.6098 60.7996 87.8659 60.1561 86.5798 59.0104C85.2937 57.8647 84.5714 56.3112 84.5714 54.6911C84.5714 53.0704 85.2937 51.5169 86.5798 50.3711C87.8659 49.2254 89.6098 48.5819 91.4286 48.5819H164.571C166.39 48.5819 168.134 49.2254 169.42 50.3711C170.706 51.5169 171.429 53.0704 171.429 54.6911Z" fill="#EB655F"/>
<path d="M80 96V176H89.4829V106.222L128 149.667L166.517 106.222V176H176V96H163.005L128 135.556L92.9951 96H80Z" fill="#EA6865"/>
</svg>
