<svg width="103" height="40" viewBox="0 0 103 40" fill="none" xmlns="http://www.w3.org/2000/svg">
<path d="M23.125 0.664062H5.125C4.0325 0.668663 2.9862 1.07756 2.2136 1.80176C1.4411 2.52606 1.0049 3.50696 1 4.53116V35.4688C1.0049 36.493 1.4411 37.4739 2.2136 38.1982C2.9862 38.9224 4.0325 39.3313 5.125 39.3359H23.125C24.2175 39.3313 25.2638 38.9224 26.0364 38.1982C26.8089 37.4739 27.2451 36.493 27.25 35.4688V4.53116C27.2451 3.50696 26.8089 2.52606 26.0364 1.80176C25.2638 1.07756 24.2175 0.668663 23.125 0.664062ZM25 35.4688C25 35.935 24.8025 36.3821 24.4508 36.7117C24.0992 37.0414 23.6223 37.2266 23.125 37.2266H5.125C4.6277 37.2266 4.1508 37.0414 3.7992 36.7117C3.4475 36.3821 3.25 35.935 3.25 35.4688V4.53116C3.25 4.06496 3.4475 3.61786 3.7992 3.28826C4.1508 2.95856 4.6277 2.77336 5.125 2.77336H23.125C23.6223 2.77336 24.0992 2.95856 24.4508 3.28826C24.8025 3.61786 25 4.06496 25 4.53116V35.4688ZM21.25 7.34376C21.25 7.62346 21.1315 7.89166 20.9205 8.08946C20.7095 8.28726 20.4234 8.39836 20.125 8.39836H8.125C7.8266 8.39836 7.5405 8.28726 7.3295 8.08946C7.1185 7.89166 7 7.62346 7 7.34376C7 7.06396 7.1185 6.79576 7.3295 6.59796C7.5405 6.40016 7.8266 6.28906 8.125 6.28906H20.125C20.4234 6.28906 20.7095 6.40016 20.9205 6.59796C21.1315 6.79576 21.25 7.06396 21.25 7.34376Z" fill="#C0444A"/>
<path d="M40.25 28.64V11.36H42.914L50.09 19.904L57.266 11.36H59.93V28.64H57.986V13.568L50.09 22.952L42.194 13.568V28.64H40.25ZM65.3476 28.64C64.8196 28.64 64.3316 28.512 63.8836 28.256C63.4516 28 63.1076 27.656 62.8516 27.224C62.5956 26.776 62.4676 26.288 62.4676 25.76V11.36H64.4116V25.76C64.4116 26.016 64.4996 26.24 64.6756 26.432C64.8676 26.608 65.0916 26.696 65.3476 26.696H76.8676C77.1236 26.696 77.3396 26.608 77.5156 26.432C77.7076 26.24 77.8036 26.016 77.8036 25.76V11.36H79.7476V25.76C79.7476 26.288 79.6196 26.776 79.3636 27.224C79.1076 27.656 78.7556 28 78.3076 28.256C77.8756 28.512 77.3956 28.64 76.8676 28.64H65.3476ZM82.1506 28.64V28.616L89.399 20L82.1506 11.384V11.36H84.6466L90.671 18.488L96.671 11.36H99.167V11.384L91.919 20L99.191 28.616V28.64H96.671L90.671 21.512L84.6466 28.64H82.1506Z" fill="#C0444A"/>
</svg>
